# 3ds Max Wavefront OBJ Exporter v0.97b - (c)2007 guruware
# File Created: 09.11.2019 18:43:53

mtllib Cylinder Centered.mtl

#
# object Cylinder001
#

v  10.8829 6.2535 -0.0000
v  10.2267 6.2535 -3.7222
v  10.2267 -0.0000 -3.7222
v  10.8829 -0.0000 -0.0000
v  8.3368 6.2535 -6.9954
v  8.3368 -0.0000 -6.9954
v  5.4415 6.2535 -9.4249
v  5.4415 -0.0000 -9.4249
v  1.8899 6.2535 -10.7176
v  1.8899 -0.0000 -10.7176
v  -1.8897 6.2535 -10.7176
v  -1.8897 -0.0000 -10.7176
v  -5.4414 6.2535 -9.4249
v  -5.4414 -0.0000 -9.4249
v  -8.3368 6.2535 -6.9954
v  -8.3368 -0.0000 -6.9954
v  -10.2267 6.2535 -3.7222
v  -10.2267 -0.0000 -3.7222
v  -10.8829 6.2535 -0.0000
v  -10.8829 -0.0000 -0.0000
v  -10.2267 6.2535 3.7222
v  -10.2267 -0.0000 3.7222
v  -8.3368 6.2535 6.9954
v  -8.3368 -0.0000 6.9954
v  -5.4414 6.2535 9.4249
v  -5.4414 -0.0000 9.4249
v  -1.8897 6.2535 10.7176
v  -1.8897 -0.0000 10.7176
v  1.8899 6.2535 10.7176
v  1.8899 -0.0000 10.7176
v  5.4415 6.2535 9.4249
v  5.4415 -0.0000 9.4249
v  8.3368 6.2535 6.9954
v  8.3368 -0.0000 6.9954
v  10.2267 6.2535 3.7222
v  10.2267 -0.0000 3.7222
v  10.8829 12.5069 -0.0000
v  10.2267 12.5069 -3.7222
v  8.3368 12.5069 -6.9954
v  5.4415 12.5069 -9.4249
v  1.8899 12.5069 -10.7176
v  -1.8897 12.5069 -10.7176
v  -5.4414 12.5069 -9.4249
v  -8.3368 12.5069 -6.9954
v  -10.2267 12.5069 -3.7222
v  -10.8829 12.5069 -0.0000
v  -10.2267 12.5069 3.7222
v  -8.3368 12.5069 6.9954
v  -5.4414 12.5069 9.4249
v  -1.8897 12.5069 10.7176
v  1.8899 12.5069 10.7176
v  5.4415 12.5069 9.4249
v  8.3368 12.5069 6.9954
v  10.2267 12.5069 3.7222
v  10.8829 18.7604 -0.0000
v  10.2267 18.7604 -3.7222
v  8.3368 18.7604 -6.9954
v  5.4415 18.7604 -9.4249
v  1.8899 18.7604 -10.7176
v  -1.8897 18.7604 -10.7176
v  -5.4414 18.7604 -9.4249
v  -8.3368 18.7604 -6.9954
v  -10.2267 18.7604 -3.7222
v  -10.8829 18.7604 -0.0000
v  -10.2267 18.7604 3.7222
v  -8.3368 18.7604 6.9954
v  -5.4414 18.7604 9.4249
v  -1.8897 18.7604 10.7176
v  1.8899 18.7604 10.7176
v  5.4415 18.7604 9.4249
v  8.3368 18.7604 6.9954
v  10.2267 18.7604 3.7222
v  10.8829 25.0139 -0.0000
v  10.2267 25.0139 -3.7222
v  8.3368 25.0139 -6.9954
v  5.4415 25.0139 -9.4249
v  1.8899 25.0139 -10.7176
v  -1.8897 25.0139 -10.7176
v  -5.4414 25.0139 -9.4249
v  -8.3368 25.0139 -6.9954
v  -10.2267 25.0139 -3.7222
v  -10.8829 25.0139 -0.0000
v  -10.2267 25.0139 3.7222
v  -8.3368 25.0139 6.9954
v  -5.4414 25.0139 9.4249
v  -1.8897 25.0139 10.7176
v  1.8899 25.0139 10.7176
v  5.4415 25.0139 9.4249
v  8.3368 25.0139 6.9954
v  10.2267 25.0139 3.7222
v  10.8829 31.2674 -0.0000
v  10.2267 31.2674 -3.7222
v  8.3368 31.2674 -6.9954
v  5.4415 31.2674 -9.4249
v  1.8899 31.2674 -10.7176
v  -1.8897 31.2674 -10.7176
v  -5.4414 31.2674 -9.4249
v  -8.3368 31.2674 -6.9954
v  -10.2267 31.2674 -3.7222
v  -10.8829 31.2674 -0.0000
v  -10.2267 31.2674 3.7222
v  -8.3368 31.2674 6.9954
v  -5.4414 31.2674 9.4249
v  -1.8897 31.2674 10.7176
v  1.8899 31.2674 10.7176
v  5.4415 31.2674 9.4249
v  8.3368 31.2674 6.9954
v  10.2267 31.2674 3.7222
# 108 vertices

vn -1.0000 0.0000 -0.0000
vn -0.9397 0.0000 0.3420
vn -0.7660 0.0000 0.6428
vn -0.5000 0.0000 0.8660
vn -0.1736 0.0000 0.9848
vn 0.1736 0.0000 0.9848
vn 0.5000 0.0000 0.8660
vn 0.7660 0.0000 0.6428
vn 0.9397 0.0000 0.3420
vn 1.0000 0.0000 0.0000
vn 0.9397 0.0000 -0.3420
vn 0.7660 0.0000 -0.6428
vn 0.5000 0.0000 -0.8660
vn 0.1736 0.0000 -0.9848
vn -0.1736 0.0000 -0.9848
vn -0.5000 0.0000 -0.8660
vn -0.7660 0.0000 -0.6428
vn -0.9397 0.0000 -0.3420
vn 0.7661 0.0000 0.6428
vn -1.0000 -0.0000 -0.0000
vn -0.9397 -0.0000 0.3420
vn -0.7660 -0.0000 0.6428
vn -0.5000 -0.0000 0.8660
vn -0.1736 -0.0000 0.9848
vn 0.1736 -0.0000 0.9848
vn 0.5000 -0.0000 0.8660
vn 0.7660 -0.0000 0.6428
vn 0.9397 -0.0000 0.3420
vn 1.0000 -0.0000 0.0000
vn 0.9397 -0.0000 -0.3420
vn 0.7660 -0.0000 -0.6428
vn 0.5000 -0.0000 -0.8660
vn 0.1736 -0.0000 -0.9848
vn -0.1736 -0.0000 -0.9848
vn -0.5000 -0.0000 -0.8660
vn -0.7660 -0.0000 -0.6428
vn -0.9397 -0.0000 -0.3420
# 37 vertex normals

vt 0.9980 0.0936 0.0000
vt 0.9427 0.0936 0.0000
vt 0.9427 0.0020 0.0000
vt 0.9980 0.0020 0.0000
vt 0.8873 0.0936 0.0000
vt 0.8873 0.0020 0.0000
vt 0.8320 0.0936 0.0000
vt 0.8320 0.0020 0.0000
vt 0.7767 0.0936 0.0000
vt 0.7767 0.0020 0.0000
vt 0.7213 0.0936 0.0000
vt 0.7213 0.0020 0.0000
vt 0.6660 0.0936 0.0000
vt 0.6660 0.0020 0.0000
vt 0.6107 0.0936 0.0000
vt 0.6107 0.0020 0.0000
vt 0.5553 0.0936 0.0000
vt 0.5553 0.0020 0.0000
vt 0.5000 0.0936 0.0000
vt 0.5000 0.0020 0.0000
vt 0.4447 0.0936 0.0000
vt 0.4447 0.0020 0.0000
vt 0.3893 0.0936 0.0000
vt 0.3893 0.0020 0.0000
vt 0.3340 0.0936 0.0000
vt 0.3340 0.0020 0.0000
vt 0.2787 0.0936 0.0000
vt 0.2787 0.0020 0.0000
vt 0.2233 0.0936 0.0000
vt 0.2233 0.0020 0.0000
vt 0.1680 0.0936 0.0000
vt 0.1680 0.0020 0.0000
vt 0.1127 0.0936 0.0000
vt 0.1127 0.0020 0.0000
vt 0.0573 0.0936 0.0000
vt 0.0573 0.0020 0.0000
vt 0.0020 0.0936 0.0000
vt 0.0020 0.0020 0.0000
vt 0.9980 0.1851 0.0000
vt 0.9427 0.1851 0.0000
vt 0.8873 0.1851 0.0000
vt 0.8320 0.1851 0.0000
vt 0.7767 0.1851 0.0000
vt 0.7213 0.1851 0.0000
vt 0.6660 0.1851 0.0000
vt 0.6107 0.1851 0.0000
vt 0.5553 0.1851 0.0000
vt 0.5000 0.1851 0.0000
vt 0.4447 0.1851 0.0000
vt 0.3893 0.1851 0.0000
vt 0.3340 0.1851 0.0000
vt 0.2787 0.1851 0.0000
vt 0.2233 0.1851 0.0000
vt 0.1680 0.1851 0.0000
vt 0.1127 0.1851 0.0000
vt 0.0573 0.1851 0.0000
vt 0.0020 0.1851 0.0000
vt 0.9980 0.2767 0.0000
vt 0.9427 0.2767 0.0000
vt 0.8873 0.2767 0.0000
vt 0.8320 0.2767 0.0000
vt 0.7767 0.2767 0.0000
vt 0.7213 0.2767 0.0000
vt 0.6660 0.2767 0.0000
vt 0.6107 0.2767 0.0000
vt 0.5553 0.2767 0.0000
vt 0.5000 0.2767 0.0000
vt 0.4447 0.2767 0.0000
vt 0.3893 0.2767 0.0000
vt 0.3340 0.2767 0.0000
vt 0.2787 0.2767 0.0000
vt 0.2233 0.2767 0.0000
vt 0.1680 0.2767 0.0000
vt 0.1127 0.2767 0.0000
vt 0.0573 0.2767 0.0000
vt 0.0020 0.2767 0.0000
vt 0.9980 0.3682 0.0000
vt 0.9427 0.3682 0.0000
vt 0.8873 0.3682 0.0000
vt 0.8320 0.3682 0.0000
vt 0.7767 0.3682 0.0000
vt 0.7213 0.3682 0.0000
vt 0.6660 0.3682 0.0000
vt 0.6107 0.3682 0.0000
vt 0.5553 0.3682 0.0000
vt 0.5000 0.3682 0.0000
vt 0.4447 0.3682 0.0000
vt 0.3893 0.3682 0.0000
vt 0.3340 0.3682 0.0000
vt 0.2787 0.3682 0.0000
vt 0.2233 0.3682 0.0000
vt 0.1680 0.3682 0.0000
vt 0.1127 0.3682 0.0000
vt 0.0573 0.3682 0.0000
vt 0.0020 0.3682 0.0000
vt 0.9980 0.4598 0.0000
vt 0.9427 0.4598 0.0000
vt 0.8873 0.4598 0.0000
vt 0.8320 0.4598 0.0000
vt 0.7767 0.4598 0.0000
vt 0.7213 0.4598 0.0000
vt 0.6660 0.4598 0.0000
vt 0.6107 0.4598 0.0000
vt 0.5553 0.4598 0.0000
vt 0.5000 0.4598 0.0000
vt 0.4447 0.4598 0.0000
vt 0.3893 0.4598 0.0000
vt 0.3340 0.4598 0.0000
vt 0.2787 0.4598 0.0000
vt 0.2233 0.4598 0.0000
vt 0.1680 0.4598 0.0000
vt 0.1127 0.4598 0.0000
vt 0.0573 0.4598 0.0000
vt 0.0020 0.4598 0.0000
# 114 texture coords

o Cylinder001
g Cylinder001
usemtl Cylinder_08___Default
s 8
f 1/1/1 2/2/2 3/3/2 4/4/1 
f 2/2/2 5/5/3 6/6/3 3/3/2 
f 5/5/3 7/7/4 8/8/4 6/6/3 
f 7/7/4 9/9/5 10/10/5 8/8/4 
f 9/9/5 11/11/6 12/12/6 10/10/5 
f 11/11/6 13/13/7 14/14/7 12/12/6 
f 13/13/7 15/15/8 16/16/8 14/14/7 
f 15/15/8 17/17/9 18/18/9 16/16/8 
f 17/17/9 19/19/10 20/20/10 18/18/9 
f 19/19/10 21/21/11 22/22/11 20/20/10 
f 21/21/11 23/23/12 24/24/12 22/22/11 
f 23/23/12 25/25/13 26/26/13 24/24/12 
f 25/25/13 27/27/14 28/28/14 26/26/13 
f 27/27/14 29/29/15 30/30/15 28/28/14 
f 29/29/15 31/31/16 32/32/16 30/30/15 
f 31/31/16 33/33/17 34/34/17 32/32/16 
f 33/33/17 35/35/18 36/36/18 34/34/17 
f 35/35/18 1/37/1 4/38/1 36/36/18 
f 37/39/1 38/40/2 2/2/2 1/1/1 
f 38/40/2 39/41/3 5/5/3 2/2/2 
f 39/41/3 40/42/4 7/7/4 5/5/3 
f 40/42/4 41/43/5 9/9/5 7/7/4 
f 41/43/5 42/44/6 11/11/6 9/9/5 
f 42/44/6 43/45/7 13/13/7 11/11/6 
f 43/45/7 44/46/19 15/15/8 13/13/7 
f 44/46/19 45/47/9 17/17/9 15/15/8 
f 45/47/9 46/48/10 19/19/10 17/17/9 
f 46/48/10 47/49/11 21/21/11 19/19/10 
f 47/49/11 48/50/12 23/23/12 21/21/11 
f 48/50/12 49/51/13 25/25/13 23/23/12 
f 49/51/13 50/52/14 27/27/14 25/25/13 
f 50/52/14 51/53/15 29/29/15 27/27/14 
f 51/53/15 52/54/16 31/31/16 29/29/15 
f 52/54/16 53/55/17 33/33/17 31/31/16 
f 53/55/17 54/56/18 35/35/18 33/33/17 
f 54/56/18 37/57/1 1/37/1 35/35/18 
f 55/58/20 56/59/21 38/40/2 37/39/1 
f 56/59/21 57/60/22 39/41/3 38/40/2 
f 57/60/22 58/61/23 40/42/4 39/41/3 
f 58/61/23 59/62/24 41/43/5 40/42/4 
f 59/62/24 60/63/25 42/44/6 41/43/5 
f 60/63/25 61/64/26 43/45/7 42/44/6 
f 61/64/26 62/65/27 44/46/19 43/45/7 
f 62/65/27 63/66/28 45/47/9 44/46/19 
f 63/66/28 64/67/29 46/48/10 45/47/9 
f 64/67/29 65/68/30 47/49/11 46/48/10 
f 65/68/30 66/69/31 48/50/12 47/49/11 
f 66/69/31 67/70/32 49/51/13 48/50/12 
f 67/70/32 68/71/33 50/52/14 49/51/13 
f 68/71/33 69/72/34 51/53/15 50/52/14 
f 69/72/34 70/73/35 52/54/16 51/53/15 
f 70/73/35 71/74/36 53/55/17 52/54/16 
f 71/74/36 72/75/37 54/56/18 53/55/17 
f 72/75/37 55/76/20 37/57/1 54/56/18 
f 73/77/1 74/78/2 56/59/21 55/58/20 
f 74/78/2 75/79/3 57/60/22 56/59/21 
f 75/79/3 76/80/4 58/61/23 57/60/22 
f 76/80/4 77/81/5 59/62/24 58/61/23 
f 77/81/5 78/82/6 60/63/25 59/62/24 
f 78/82/6 79/83/7 61/64/26 60/63/25 
f 79/83/7 80/84/8 62/65/27 61/64/26 
f 80/84/8 81/85/9 63/66/28 62/65/27 
f 81/85/9 82/86/10 64/67/29 63/66/28 
f 82/86/10 83/87/11 65/68/30 64/67/29 
f 83/87/11 84/88/12 66/69/31 65/68/30 
f 84/88/12 85/89/13 67/70/32 66/69/31 
f 85/89/13 86/90/14 68/71/33 67/70/32 
f 86/90/14 87/91/15 69/72/34 68/71/33 
f 87/91/15 88/92/16 70/73/35 69/72/34 
f 88/92/16 89/93/17 71/74/36 70/73/35 
f 89/93/17 90/94/18 72/75/37 71/74/36 
f 90/94/18 73/95/1 55/76/20 72/75/37 
f 91/96/1 92/97/2 74/78/2 73/77/1 
f 92/97/2 93/98/3 75/79/3 74/78/2 
f 93/98/3 94/99/4 76/80/4 75/79/3 
f 94/99/4 95/100/5 77/81/5 76/80/4 
f 95/100/5 96/101/6 78/82/6 77/81/5 
f 96/101/6 97/102/7 79/83/7 78/82/6 
f 97/102/7 98/103/8 80/84/8 79/83/7 
f 98/103/8 99/104/9 81/85/9 80/84/8 
f 99/104/9 100/105/10 82/86/10 81/85/9 
f 100/105/10 101/106/11 83/87/11 82/86/10 
f 101/106/11 102/107/12 84/88/12 83/87/11 
f 102/107/12 103/108/13 85/89/13 84/88/12 
f 103/108/13 104/109/14 86/90/14 85/89/13 
f 104/109/14 105/110/15 87/91/15 86/90/14 
f 105/110/15 106/111/16 88/92/16 87/91/15 
f 106/111/16 107/112/17 89/93/17 88/92/16 
f 107/112/17 108/113/18 90/94/18 89/93/17 
f 108/113/18 91/114/1 73/95/1 90/94/18 
# 90 polygons

