# 3ds Max Wavefront OBJ Exporter v0.97b - (c)2007 guruware
# File Created: 04.12.2019 20:23:15

#
# object Cylinder002
#

v  10.2267 0.0000 -3.7222
v  10.8829 0.0000 -0.0000
v  10.8829 3.3212 -0.0000
v  10.2267 3.3212 -3.7222
v  8.3368 0.0000 -6.9954
v  8.3368 3.3212 -6.9954
v  5.4415 0.0000 -9.4249
v  5.4415 3.3212 -9.4249
v  1.8899 0.0000 -10.7176
v  1.8899 3.3212 -10.7176
v  -1.8897 0.0000 -10.7176
v  -1.8897 3.3212 -10.7176
v  -5.4414 0.0000 -9.4249
v  -5.4414 3.3212 -9.4249
v  -8.3368 0.0000 -6.9954
v  -8.3368 3.3212 -6.9954
v  -10.2267 0.0000 -3.7222
v  -10.2267 3.3212 -3.7222
v  -10.8829 0.0000 -0.0000
v  -10.8829 3.3212 -0.0000
v  -10.2267 0.0000 3.7222
v  -10.2267 3.3212 3.7222
v  -8.3368 0.0000 6.9954
v  -8.3368 3.3212 6.9954
v  -5.4414 0.0000 9.4249
v  -5.4414 3.3212 9.4249
v  -1.8897 0.0000 10.7176
v  -1.8897 3.3212 10.7176
v  1.8899 0.0000 10.7176
v  1.8899 3.3212 10.7176
v  5.4415 0.0000 9.4249
v  5.4415 3.3212 9.4249
v  8.3368 0.0000 6.9954
v  8.3368 3.3212 6.9954
v  10.2267 0.0000 3.7222
v  10.2267 3.3212 3.7222
v  10.8829 6.6424 -0.0000
v  10.2267 6.6424 -3.7222
v  8.3368 6.6424 -6.9954
v  5.4415 6.6424 -9.4249
v  1.8899 6.6424 -10.7176
v  -1.8897 6.6424 -10.7176
v  -5.4414 6.6424 -9.4249
v  -8.3368 6.6424 -6.9954
v  -10.2267 6.6424 -3.7222
v  -10.8829 6.6424 -0.0000
v  -10.2267 6.6424 3.7222
v  -8.3368 6.6424 6.9954
v  -5.4414 6.6424 9.4249
v  -1.8897 6.6424 10.7176
v  1.8899 6.6424 10.7176
v  5.4415 6.6424 9.4249
v  8.3368 6.6424 6.9954
v  10.2267 6.6424 3.7222
v  10.8829 9.9636 -0.0000
v  10.2267 9.9636 -3.7222
v  8.3368 9.9636 -6.9954
v  5.4415 9.9636 -9.4249
v  1.8899 9.9636 -10.7176
v  -1.8897 9.9636 -10.7176
v  -5.4414 9.9636 -9.4249
v  -8.3368 9.9636 -6.9954
v  -10.2267 9.9636 -3.7222
v  -10.8829 9.9636 -0.0000
v  -10.2267 9.9636 3.7222
v  -8.3368 9.9636 6.9954
v  -5.4414 9.9636 9.4249
v  -1.8897 9.9636 10.7176
v  1.8899 9.9636 10.7176
v  5.4415 9.9636 9.4249
v  8.3368 9.9636 6.9954
v  10.2267 9.9636 3.7222
v  10.8829 13.2849 -0.0000
v  10.2267 13.2849 -3.7222
v  8.3368 13.2849 -6.9954
v  5.4415 13.2849 -9.4249
v  1.8899 13.2849 -10.7176
v  -1.8897 13.2849 -10.7176
v  -5.4414 13.2849 -9.4249
v  -8.3368 13.2849 -6.9954
v  -10.2267 13.2849 -3.7222
v  -10.8829 13.2849 -0.0000
v  -10.2267 13.2849 3.7222
v  -8.3368 13.2849 6.9954
v  -5.4414 13.2849 9.4249
v  -1.8897 13.2849 10.7176
v  1.8899 13.2849 10.7176
v  5.4415 13.2849 9.4249
v  8.3368 13.2849 6.9954
v  10.2267 13.2849 3.7222
v  10.8829 16.6061 -0.0000
v  10.2267 16.6061 -3.7222
v  8.3368 16.6061 -6.9954
v  5.4415 16.6061 -9.4249
v  1.8899 16.6061 -10.7176
v  -1.8897 16.6061 -10.7176
v  -5.4414 16.6061 -9.4249
v  -8.3368 16.6061 -6.9954
v  -10.2267 16.6061 -3.7222
v  -10.8829 16.6061 -0.0000
v  -10.2267 16.6061 3.7222
v  -8.3368 16.6061 6.9954
v  -5.4414 16.6061 9.4249
v  -1.8897 16.6061 10.7176
v  1.8899 16.6061 10.7176
v  5.4415 16.6061 9.4249
v  8.3368 16.6061 6.9954
v  10.2267 16.6061 3.7222
# 108 vertices

vn -0.9397 0.0000 0.3420
vn -1.0000 0.0000 -0.0000
vn -0.7660 0.0000 0.6428
vn -0.5000 0.0000 0.8660
vn -0.1736 0.0000 0.9848
vn 0.1736 0.0000 0.9848
vn 0.5000 0.0000 0.8660
vn 0.7660 0.0000 0.6428
vn 0.9397 0.0000 0.3420
vn 1.0000 0.0000 -0.0000
vn 0.9397 0.0000 -0.3420
vn 0.7660 0.0000 -0.6428
vn 0.5000 0.0000 -0.8660
vn 0.1736 0.0000 -0.9848
vn -0.1736 0.0000 -0.9848
vn -0.5000 0.0000 -0.8660
vn -0.7660 0.0000 -0.6428
vn -0.9397 0.0000 -0.3420
vn 0.7661 0.0000 0.6428
vn 0.0000 -1.0000 -0.0000
# 20 vertex normals

vt 0.5015 0.0005 0.0000
vt 0.5568 0.0005 0.0000
vt 0.5568 0.0491 0.0000
vt 0.5015 0.0491 0.0000
vt 0.4461 0.0005 0.0000
vt 0.4461 0.0491 0.0000
vt 0.3908 0.0005 0.0000
vt 0.3908 0.0491 0.0000
vt 0.3355 0.0005 0.0000
vt 0.3355 0.0491 0.0000
vt 0.2801 0.0005 0.0000
vt 0.2801 0.0491 0.0000
vt 0.2248 0.0005 0.0000
vt 0.2248 0.0491 0.0000
vt 0.1694 0.0005 0.0000
vt 0.1694 0.0491 0.0000
vt 0.1141 0.0005 0.0000
vt 0.1141 0.0491 0.0000
vt 0.0588 0.0005 0.0000
vt 0.0588 0.0491 0.0000
vt 0.0034 0.0005 0.0000
vt 0.0034 0.0491 0.0000
vt 0.9442 0.0005 0.0000
vt 0.9995 0.0005 0.0000
vt 0.9995 0.0491 0.0000
vt 0.9442 0.0491 0.0000
vt 0.8888 0.0005 0.0000
vt 0.8888 0.0491 0.0000
vt 0.8335 0.0005 0.0000
vt 0.8335 0.0491 0.0000
vt 0.7781 0.0005 0.0000
vt 0.7781 0.0491 0.0000
vt 0.7228 0.0005 0.0000
vt 0.7228 0.0491 0.0000
vt 0.6675 0.0005 0.0000
vt 0.6675 0.0491 0.0000
vt 0.6121 0.0005 0.0000
vt 0.6121 0.0491 0.0000
vt 0.5568 0.0978 0.0000
vt 0.5015 0.0978 0.0000
vt 0.4461 0.0978 0.0000
vt 0.3908 0.0978 0.0000
vt 0.3355 0.0978 0.0000
vt 0.2801 0.0978 0.0000
vt 0.2248 0.0978 0.0000
vt 0.1694 0.0978 0.0000
vt 0.1141 0.0978 0.0000
vt 0.0588 0.0978 0.0000
vt 0.0034 0.0978 0.0000
vt 0.9995 0.0978 0.0000
vt 0.9442 0.0978 0.0000
vt 0.8888 0.0978 0.0000
vt 0.8335 0.0978 0.0000
vt 0.7781 0.0978 0.0000
vt 0.7228 0.0978 0.0000
vt 0.6675 0.0978 0.0000
vt 0.6121 0.0978 0.0000
vt 0.5568 0.1464 0.0000
vt 0.5015 0.1464 0.0000
vt 0.4461 0.1464 0.0000
vt 0.3908 0.1464 0.0000
vt 0.3355 0.1464 0.0000
vt 0.2801 0.1464 0.0000
vt 0.2248 0.1464 0.0000
vt 0.1694 0.1464 0.0000
vt 0.1141 0.1464 0.0000
vt 0.0588 0.1464 0.0000
vt 0.0034 0.1464 0.0000
vt 0.9995 0.1464 0.0000
vt 0.9442 0.1464 0.0000
vt 0.8888 0.1464 0.0000
vt 0.8335 0.1464 0.0000
vt 0.7781 0.1464 0.0000
vt 0.7228 0.1464 0.0000
vt 0.6675 0.1464 0.0000
vt 0.6121 0.1464 0.0000
vt 0.5568 0.1950 0.0000
vt 0.5015 0.1950 0.0000
vt 0.4461 0.1950 0.0000
vt 0.3908 0.1950 0.0000
vt 0.3355 0.1950 0.0000
vt 0.2801 0.1950 0.0000
vt 0.2248 0.1950 0.0000
vt 0.1694 0.1950 0.0000
vt 0.1141 0.1950 0.0000
vt 0.0588 0.1950 0.0000
vt 0.0034 0.1950 0.0000
vt 0.9995 0.1950 0.0000
vt 0.9442 0.1950 0.0000
vt 0.8888 0.1950 0.0000
vt 0.8335 0.1950 0.0000
vt 0.7781 0.1950 0.0000
vt 0.7228 0.1950 0.0000
vt 0.6675 0.1950 0.0000
vt 0.6121 0.1950 0.0000
vt 0.5568 0.2436 0.0000
vt 0.5015 0.2436 0.0000
vt 0.4461 0.2436 0.0000
vt 0.3908 0.2436 0.0000
vt 0.3355 0.2436 0.0000
vt 0.2801 0.2436 0.0000
vt 0.2248 0.2436 0.0000
vt 0.1694 0.2436 0.0000
vt 0.1141 0.2436 0.0000
vt 0.0588 0.2436 0.0000
vt 0.0034 0.2436 0.0000
vt 0.9995 0.2436 0.0000
vt 0.9442 0.2436 0.0000
vt 0.8888 0.2436 0.0000
vt 0.8335 0.2436 0.0000
vt 0.7781 0.2436 0.0000
vt 0.7228 0.2436 0.0000
vt 0.6675 0.2436 0.0000
vt 0.6121 0.2436 0.0000
vt 0.2377 0.5435 0.0000
vt 0.2797 0.5077 0.0000
vt 0.3072 0.4594 0.0000
vt 0.3167 0.4045 0.0000
vt 0.3072 0.3496 0.0000
vt 0.2797 0.3013 0.0000
vt 0.2377 0.2655 0.0000
vt 0.1861 0.2464 0.0000
vt 0.1312 0.2464 0.0000
vt 0.0796 0.2655 0.0000
vt 0.0375 0.3013 0.0000
vt 0.0100 0.3496 0.0000
vt 0.0005 0.4045 0.0000
vt 0.0100 0.4594 0.0000
vt 0.0375 0.5077 0.0000
vt 0.0796 0.5435 0.0000
vt 0.1312 0.5626 0.0000
vt 0.1861 0.5626 0.0000
# 132 texture coords

o Cylinder002
g Cylinder002
s 8
f 1/1/1 2/2/2 3/3/2 4/4/1 
f 5/5/3 1/1/1 4/4/1 6/6/3 
f 7/7/4 5/5/3 6/6/3 8/8/4 
f 9/9/5 7/7/4 8/8/4 10/10/5 
f 11/11/6 9/9/5 10/10/5 12/12/6 
f 13/13/7 11/11/6 12/12/6 14/14/7 
f 15/15/8 13/13/7 14/14/7 16/16/8 
f 17/17/9 15/15/8 16/16/8 18/18/9 
f 19/19/10 17/17/9 18/18/9 20/20/10 
f 21/21/11 19/19/10 20/20/10 22/22/11 
f 23/23/12 21/24/11 22/25/11 24/26/12 
f 25/27/13 23/23/12 24/26/12 26/28/13 
f 27/29/14 25/27/13 26/28/13 28/30/14 
f 29/31/15 27/29/14 28/30/14 30/32/15 
f 31/33/16 29/31/15 30/32/15 32/34/16 
f 33/35/17 31/33/16 32/34/16 34/36/17 
f 35/37/18 33/35/17 34/36/17 36/38/18 
f 2/2/2 35/37/18 36/38/18 3/3/2 
f 4/4/1 3/3/2 37/39/2 38/40/1 
f 6/6/3 4/4/1 38/40/1 39/41/3 
f 8/8/4 6/6/3 39/41/3 40/42/4 
f 10/10/5 8/8/4 40/42/4 41/43/5 
f 12/12/6 10/10/5 41/43/5 42/44/6 
f 14/14/7 12/12/6 42/44/6 43/45/7 
f 16/16/8 14/14/7 43/45/7 44/46/19 
f 18/18/9 16/16/8 44/46/19 45/47/9 
f 20/20/10 18/18/9 45/47/9 46/48/10 
f 22/22/11 20/20/10 46/48/10 47/49/11 
f 24/26/12 22/25/11 47/50/11 48/51/12 
f 26/28/13 24/26/12 48/51/12 49/52/13 
f 28/30/14 26/28/13 49/52/13 50/53/14 
f 30/32/15 28/30/14 50/53/14 51/54/15 
f 32/34/16 30/32/15 51/54/15 52/55/16 
f 34/36/17 32/34/16 52/55/16 53/56/17 
f 36/38/18 34/36/17 53/56/17 54/57/18 
f 3/3/2 36/38/18 54/57/18 37/39/2 
f 38/40/1 37/39/2 55/58/2 56/59/1 
f 39/41/3 38/40/1 56/59/1 57/60/3 
f 40/42/4 39/41/3 57/60/3 58/61/4 
f 41/43/5 40/42/4 58/61/4 59/62/5 
f 42/44/6 41/43/5 59/62/5 60/63/6 
f 43/45/7 42/44/6 60/63/6 61/64/7 
f 44/46/19 43/45/7 61/64/7 62/65/8 
f 45/47/9 44/46/19 62/65/8 63/66/9 
f 46/48/10 45/47/9 63/66/9 64/67/10 
f 47/49/11 46/48/10 64/67/10 65/68/11 
f 48/51/12 47/50/11 65/69/11 66/70/12 
f 49/52/13 48/51/12 66/70/12 67/71/13 
f 50/53/14 49/52/13 67/71/13 68/72/14 
f 51/54/15 50/53/14 68/72/14 69/73/15 
f 52/55/16 51/54/15 69/73/15 70/74/16 
f 53/56/17 52/55/16 70/74/16 71/75/17 
f 54/57/18 53/56/17 71/75/17 72/76/18 
f 37/39/2 54/57/18 72/76/18 55/58/2 
f 56/59/1 55/58/2 73/77/2 74/78/1 
f 57/60/3 56/59/1 74/78/1 75/79/3 
f 58/61/4 57/60/3 75/79/3 76/80/4 
f 59/62/5 58/61/4 76/80/4 77/81/5 
f 60/63/6 59/62/5 77/81/5 78/82/6 
f 61/64/7 60/63/6 78/82/6 79/83/7 
f 62/65/8 61/64/7 79/83/7 80/84/8 
f 63/66/9 62/65/8 80/84/8 81/85/9 
f 64/67/10 63/66/9 81/85/9 82/86/10 
f 65/68/11 64/67/10 82/86/10 83/87/11 
f 66/70/12 65/69/11 83/88/11 84/89/12 
f 67/71/13 66/70/12 84/89/12 85/90/13 
f 68/72/14 67/71/13 85/90/13 86/91/14 
f 69/73/15 68/72/14 86/91/14 87/92/15 
f 70/74/16 69/73/15 87/92/15 88/93/16 
f 71/75/17 70/74/16 88/93/16 89/94/17 
f 72/76/18 71/75/17 89/94/17 90/95/18 
f 55/58/2 72/76/18 90/95/18 73/77/2 
f 74/78/1 73/77/2 91/96/2 92/97/1 
f 75/79/3 74/78/1 92/97/1 93/98/3 
f 76/80/4 75/79/3 93/98/3 94/99/4 
f 77/81/5 76/80/4 94/99/4 95/100/5 
f 78/82/6 77/81/5 95/100/5 96/101/6 
f 79/83/7 78/82/6 96/101/6 97/102/7 
f 80/84/8 79/83/7 97/102/7 98/103/8 
f 81/85/9 80/84/8 98/103/8 99/104/9 
f 82/86/10 81/85/9 99/104/9 100/105/10 
f 83/87/11 82/86/10 100/105/10 101/106/11 
f 84/89/12 83/88/11 101/107/11 102/108/12 
f 85/90/13 84/89/12 102/108/12 103/109/13 
f 86/91/14 85/90/13 103/109/13 104/110/14 
f 87/92/15 86/91/14 104/110/14 105/111/15 
f 88/93/16 87/92/15 105/111/15 106/112/16 
f 89/94/17 88/93/16 106/112/16 107/113/17 
f 90/95/18 89/94/17 107/113/17 108/114/18 
f 73/77/2 90/95/18 108/114/18 91/96/2 
s off
f 94/115/20 93/116/20 92/117/20 91/118/20 108/119/20 107/120/20 106/121/20 105/122/20 104/123/20 103/124/20 102/125/20 101/126/20 100/127/20 99/128/20 98/129/20 97/130/20 96/131/20 95/132/20 
# 91 polygons

